<svg xmlns="http://www.w3.org/2000/svg" viewBox="0 0 1600 600" preserveAspectRatio="xMidYMid slice">
  <defs>
    <linearGradient id="cg1" x1="0" y1="0" x2="1" y2="1"><stop offset="0%" stop-color="#1e3a5f"></stop><stop offset="100%" stop-color="#152944"></stop></linearGradient>
    <radialGradient id="cg2" cx="80%" cy="50%" r="40%"><stop offset="0%" stop-color="#b8860b" stop-opacity=".18"></stop><stop offset="100%" stop-color="#1e3a5f" stop-opacity="0"></stop></radialGradient>
  </defs>
  <rect width="1600" height="600" fill="url(#cg1)"></rect>
  <rect width="1600" height="600" fill="url(#cg2)"></rect>
  <g fill="none" stroke="#b8860b" stroke-width=".7" opacity=".35">
    <path d="M-40 480 Q 280 380 580 410 T 1180 340 T 1700 290"></path>
    <path d="M-40 420 Q 260 320 560 350 T 1160 280 T 1700 230"></path>
    <path d="M-40 360 Q 240 260 540 290 T 1140 220 T 1700 170"></path>
    <path d="M-40 540 Q 300 440 600 470 T 1200 400 T 1700 350"></path>
  </g>
  <g fill="#fff">
    <circle cx="120" cy="100" r=".8" opacity=".5"></circle>
    <circle cx="380" cy="60" r="1.2" opacity=".7"></circle>
    <circle cx="640" cy="120" r=".7" opacity=".4"></circle>
    <circle cx="880" cy="80" r="1.0" opacity=".6"></circle>
    <circle cx="1180" cy="140" r=".9" opacity=".5"></circle>
    <circle cx="1440" cy="100" r="1.4" opacity=".8"></circle>
    <circle cx="240" cy="200" r=".6" opacity=".4"></circle>
    <circle cx="760" cy="220" r=".8" opacity=".5"></circle>
    <circle cx="1320" cy="240" r=".7" opacity=".4"></circle>
  </g>
  <g transform="translate(1280 300)" opacity=".5">
    <circle r="160" fill="none" stroke="#b8860b" stroke-width="1"></circle>
    <circle r="120" fill="none" stroke="#b8860b" stroke-width=".5" opacity=".5"></circle>
    <path d="M0 0 L50 -85 L0 -75 L-12 -45 Z" fill="#b8860b" opacity=".6"></path>
    <circle r="3" fill="#b8860b"></circle>
  </g>
</svg>